<svg xmlns="http://www.w3.org/2000/svg" viewBox="0 0 512 512" role="img" aria-label="The Umami Post">
  <defs>
    <!-- Hand-drawn roughening filter -->
    <filter id="rough" x="-3%" y="-3%" width="106%" height="106%">
      <feTurbulence type="fractalNoise" baseFrequency="0.022" numOctaves="2" seed="7" result="noise"/>
      <feDisplacementMap in="SourceGraphic" in2="noise" scale="4"/>
    </filter>

    <!-- Mushroom silhouette (taller version) -->
    <path id="mushroom" d="
      M 78 263
      C 80 174 122 68 258 70
      C 392 72 438 178 434 267
      C 434 291 420 297 400 295
      L 352 295
      L 354 440
      Q 354 460 330 464
      Q 256 470 182 463
      Q 160 460 158 440
      L 160 295
      L 112 293
      C 92 293 76 289 78 263
      Z
    "/>
    <clipPath id="mushroom-clip"><use href="#mushroom"/></clipPath>

    <!-- Cap-only shape (for clipping the rough-fill effect) -->
    <path id="cap-shape" d="
      M 78 263
      C 80 174 122 68 258 70
      C 392 72 438 178 434 267
      C 434 291 420 297 400 295
      L 112 293
      C 92 293 76 289 78 263
      Z
    "/>
    <clipPath id="cap-clip"><use href="#cap-shape"/></clipPath>

    <!-- Two cap spots: larger upper-left, smaller lower-right -->
    <path id="spot-a" d="
      M 212 142
      C 192 142 180 154 184 170
      C 188 186 204 192 222 190
      C 240 188 250 174 244 158
      C 238 146 226 142 212 142 Z
    "/>
    <clipPath id="spot-a-clip"><use href="#spot-a"/></clipPath>

    <path id="spot-b" d="
      M 320 217
      C 304 218 296 228 300 238
      C 304 248 318 251 330 248
      C 342 245 346 234 340 224
      C 336 218 328 216 320 217 Z
    "/>
    <clipPath id="spot-b-clip"><use href="#spot-b"/></clipPath>
  </defs>

  <!-- Dark background matching site dark-mode bg -->
  <rect width="512" height="512" rx="88" ry="88" fill="#1A1410"/>

  <g filter="url(#rough)">
    <!-- Stem fill: deeper-than-bg charcoal so the cream stripes
         have something to register against -->
    <use href="#mushroom" fill="#2C231C"/>

    <!-- Cap: brighter saffron + dark inner ring -->
    <g clip-path="url(#cap-clip)">
      <use href="#cap-shape" fill="#E89456" stroke="#2C231C" stroke-width="22"/>
    </g>

    <!-- Diagonal stripes across stem - cream so they pop on dark -->
    <g clip-path="url(#mushroom-clip)" stroke="#F2E9D8" stroke-width="9" stroke-linecap="round" fill="none">
      <path d="M 90 280 Q 132 380 178 480"/>
      <path d="M 130 280 Q 172 380 218 480"/>
      <path d="M 170 280 Q 212 380 258 480"/>
      <path d="M 210 280 Q 252 380 298 480"/>
      <path d="M 250 280 Q 292 380 338 480"/>
      <path d="M 290 280 Q 332 380 378 480"/>
      <path d="M 330 280 Q 372 380 418 480"/>
      <path d="M 370 280 Q 412 380 458 480"/>
    </g>

    <!-- Spots: cream interior + saffron ring -->
    <g clip-path="url(#spot-a-clip)">
      <use href="#spot-a" fill="#F2E9D8" stroke="#E89456" stroke-width="12"/>
    </g>
    <g clip-path="url(#spot-b-clip)">
      <use href="#spot-b" fill="#F2E9D8" stroke="#E89456" stroke-width="10"/>
    </g>

    <!-- Cap/stem junction in cream -->
    <line x1="160" y1="295" x2="352" y2="295" stroke="#F2E9D8" stroke-width="9" stroke-linecap="round"/>

    <!-- Outer silhouette outline in cream so it reads on dark -->
    <use href="#mushroom" fill="none" stroke="#F2E9D8" stroke-width="13" stroke-linejoin="round" stroke-linecap="round"/>
  </g>
</svg>
